<?xml version="1.0" encoding="utf-8"?>
<svg viewBox="0 0 500 500" xmlns="http://www.w3.org/2000/svg">
  <path style="fill: rgb(216, 216, 216); stroke: rgb(0, 0, 0);" d="M 499.459 34.054 C 424.684 34.234 349.91 34.054 275.135 33.514 C 211.338 33.053 169.176 38.278 148.649 49.189 C 82 84.616 98.756 119.21 198.919 152.973 C 275.898 178.921 309.952 156.398 301.081 85.405 C 293.956 28.378 238.821 12.162 135.676 36.757 C 90.68 47.486 66.175 86.405 62.162 153.514 C 57.87 225.283 56.969 297.175 59.459 369.189 C 62.157 447.216 96.391 460.009 162.162 407.568 C 207.993 371.025 191.957 347.422 114.054 336.757 C 65.781 330.148 58.393 377.175 91.892 477.838 C 102.145 508.649 134.578 507.028 189.189 472.973 Q 302.52 402.302 343.784 255.135"/>
</svg>